<?xml version="1.0" encoding="UTF-8"?>
<svg width="600px" height="200px" viewBox="0 0 600 200" version="1.1" xmlns="http://www.w3.org/2000/svg"
    xmlns:xlink="http://www.w3.org/1999/xlink">
    <style>
        .wave-bar {
            animation: waveAnimation 1.5s ease-in-out infinite;
        }

        .wave-bar:nth-child(1) {
            animation-delay: 0s;
        }

        .wave-bar:nth-child(2) {
            animation-delay: 0.1s;
        }

        .wave-bar:nth-child(3) {
            animation-delay: 0.2s;
        }

        .wave-bar:nth-child(4) {
            animation-delay: 0.3s;
        }

        .wave-bar:nth-child(5) {
            animation-delay: 0.4s;
        }

        .wave-bar:nth-child(6) {
            animation-delay: 0.5s;
        }

        .wave-bar:nth-child(7) {
            animation-delay: 0.6s;
        }

        .wave-bar:nth-child(8) {
            animation-delay: 0.7s;
        }

        .wave-bar:nth-child(9) {
            animation-delay: 0.8s;
        }

        .wave-bar:nth-child(10) {
            animation-delay: 0.9s;
        }

        .wave-bar:nth-child(11) {
            animation-delay: 1.0s;
        }

        .wave-bar:nth-child(12) {
            animation-delay: 1.1s;
        }

        @keyframes waveAnimation {

            0%,
            100% {
                transform: scaleY(0.3);
            }

            50% {
                transform: scaleY(1);
            }
        }
    </style>
    <title>VAD - Voice Activity Detection</title>
    <g id="vad-container" stroke="none" stroke-width="1" fill="none" fill-rule="evenodd">
        <!-- VAD Text -->
        <g>
            <!-- V -->
            <path d="M280,50 L300,120 L320,50 L340,50 L310,150 L290,150 L260,50 Z" fill="#1E88E5" fill-rule="nonzero">
            </path>
            <!-- A -->
            <path
                d="M350,150 L380,50 Q390,45 400,50 L430,150 L410,150 L405,125 L375,125 L370,150 Z M380,105 L400,105 L390,85 L380,105 Z"
                fill="#1E88E5" fill-rule="nonzero"></path>
            <!-- D -->
            <path
                d="M460,50 L460,150 L510,150 C530,150 550,130 550,100 C550,70 530,50 510,50 Z M480,70 L510,70 C520,70 530,80 530,100 C530,120 520,130 510,130 L480,130 Z"
                fill="#1E88E5" fill-rule="nonzero"></path>
        </g>

        <!-- Sound Wave Visualization -->
        <g id="sound-wave" transform="translate(50, 100)">
            <!-- Wave bars with different heights -->
            <rect class="wave-bar" x="0" y="-10" width="8" height="20" rx="4" fill="#1E88E5" transform-origin="4px 0px">
            </rect>
            <rect class="wave-bar" x="15" y="-25" width="8" height="50" rx="4" fill="#1E88E5"
                transform-origin="19px 0px">
            </rect>
            <rect class="wave-bar" x="30" y="-15" width="8" height="30" rx="4" fill="#1E88E5"
                transform-origin="34px 0px">
            </rect>
            <rect class="wave-bar" x="45" y="-35" width="8" height="70" rx="4" fill="#1E88E5"
                transform-origin="49px 0px">
            </rect>
            <rect class="wave-bar" x="60" y="-20" width="8" height="40" rx="4" fill="#1E88E5"
                transform-origin="64px 0px">
            </rect>
            <rect class="wave-bar" x="75" y="-40" width="8" height="80" rx="4" fill="#1E88E5"
                transform-origin="79px 0px">
            </rect>
            <rect class="wave-bar" x="90" y="-30" width="8" height="60" rx="4" fill="#1E88E5"
                transform-origin="94px 0px">
            </rect>
            <rect class="wave-bar" x="105" y="-15" width="8" height="30" rx="4" fill="#1E88E5"
                transform-origin="109px 0px"></rect>
            <rect class="wave-bar" x="120" y="-25" width="8" height="50" rx="4" fill="#1E88E5"
                transform-origin="124px 0px"></rect>
            <rect class="wave-bar" x="135" y="-35" width="8" height="70" rx="4" fill="#1E88E5"
                transform-origin="139px 0px"></rect>
            <rect class="wave-bar" x="150" y="-10" width="8" height="20" rx="4" fill="#1E88E5"
                transform-origin="154px 0px"></rect>
            <rect class="wave-bar" x="165" y="-20" width="8" height="40" rx="4" fill="#1E88E5"
                transform-origin="169px 0px"></rect>
        </g>
    </g>
</svg>